<svg width="332" height="190" viewBox="0 0 332 190" fill="none" xmlns="http://www.w3.org/2000/svg">
<path d="M80.9665 46.1251L18.9424 90.92C17.3174 92.0937 16.6372 94.7406 17.4233 96.8321L17.4233 96.8321C18.2094 98.9236 20.164 99.6677 21.7891 98.494L83.8131 53.699C85.4382 52.5254 86.1183 49.8785 85.3322 47.787C84.5462 45.6955 82.5916 44.9514 80.9665 46.1251Z" fill="#FFFEFE"/>
<path d="M84.9984 136.311L21.7272 94.1791C20.0694 93.0752 18.1373 93.9019 17.4117 96.0255C16.6861 98.1491 17.4418 100.766 19.0995 101.869L82.3708 144.001C84.0285 145.105 85.9606 144.278 86.6862 142.155C87.4118 140.031 86.6561 137.415 84.9984 136.311Z" fill="#FFFCFC"/>
<path d="M181.534 91H27.4658C24.9994 91 23 92.82 23 95.065C23 97.31 24.9994 99.13 27.4658 99.13H181.534C184.001 99.13 186 97.31 186 95.065C186 92.82 184.001 91 181.534 91Z" fill="#FEFCFC"/>
</svg>
